<?xml version="1.0" encoding="utf-8"?>
<svg id="master-artboard" viewBox="0 0 138.7096710205078 143.27674865722656" version="1.1" xmlns="http://www.w3.org/2000/svg" x="0px" y="0px" style="enable-background:new 0 0 550 385;" width="138.7096710205078px" height="143.27674865722656px"><rect id="ee-background" x="0" y="0" width="138.7096710205078" height="143.27674865722656" style="fill: white; fill-opacity: 0; pointer-events: none;"/>


<g id="avatars" transform="matrix(1, 0, 0, 1, -191.93548583984375, -60.611207008361816)">
		
		
		<g transform="matrix(1, 0, 0, 1, 138.53989566495528, -143.59082936107342)">
			<path class="st1" d="M151.7,299.3l0.2-0.2l-1.3-0.1c-3.6-0.1-5-1.2-6.8-3.6c-2.1-2.8-4.1-6.7-5.5-11.1c4.1-4.3,7.6-10,8.7-16.5&#10;&#9;&#9;&#9;&#9;c2.6-1.5,5.3-4.7,5.3-8.2c0-1,0-2-0.1-2.9c0,0,0,0,0,0c0.5-2.7,0.7-5.3,0.6-7.7c-0.4-17.5-15.8-24.7-15.8-24.7&#10;&#9;&#9;&#9;&#9;c-0.2-1.2,3.9-3.5,3.9-3.5c-3.4-1-6.2,1.2-6.2,1.2c0-5.2-5-5-5-5c2.7,2.3,1.3,4.7,1.3,4.7c-5.7-1.8-14.4,0.1-14.4,0.1&#10;&#9;&#9;&#9;&#9;c-25.8,8.2-22.4,29.4-22.4,29.4c0.1-0.2,0.1-0.4,0.2-0.5c0.2,2.1,0.7,4.2,1.6,6.4c0.1,0.2,0.2,0.4,0.2,0.6c0,0.7,0,1.3,0,2&#10;&#9;&#9;&#9;&#9;c0,3.7,2.9,7,5.8,8.4c1.2,6.4,4.8,12,8.9,16.2c-0.6,3.7-1.8,7.4-3.8,10.3c-1.9,2.6-4.3,4.2-7.1,4.7l-0.5,0.1l0,0.2&#10;&#9;&#9;&#9;&#9;c-21.1,2.6-31.1,13.9-31.1,30.9v2.1h111.7v-2.1C180.2,313.4,174.5,300.7,151.7,299.3z M108.1,295.3c2-2.8,3.2-6.4,3.8-10&#10;&#9;&#9;&#9;&#9;c4.7,4.5,9.9,7.2,12.6,7.2h0c3.2,0,8.3-2.7,12.9-7.3c1.4,4.3,3.4,8.2,5.5,10.9c1.1,1.4,2.1,2.4,3.4,3.1c0.8,0.4,1.7,0.7,2.9,0.8&#10;&#9;&#9;&#9;&#9;c-2.7,2.1-10.8,7.3-23.8,7.3c-11,0-21.5-5.3-24.2-7.1c0.8-0.2,1.6-0.5,2.4-0.9C105.3,298.4,106.8,297.1,108.1,295.3z&#10;&#9;&#9;&#9;&#9; M103.1,267.4l-0.3-0.1c-2.2-1-5.2-3.8-5.4-7.3c0-0.1,0-0.2,0-0.3c0-3.2,0.2-6.2,2.4-7.6c1.7,2.2,3,4.7,3,4.7s-1.1-7.9,0.2-8.3&#10;&#9;&#9;&#9;&#9;c4.1-1,13.4-13.8,13.4-13.8c-2.5,5.5-7.5,10.8-7.5,10.8c14.8,2.5,24.6-12.3,24.6-12.3c3.7,9.1,13.6,15.5,12.9,22.3&#10;&#9;&#9;&#9;&#9;c-0.1,0.6,1.9-0.8,3.6-2.3c1,1.4,1.2,3.6,1.2,6.5c0,0.6-0.1,1.1-0.2,1.7c-0.2,0.7-0.5,1.3-0.8,1.9c-0.6,1-1.3,1.8-2.1,2.5&#10;&#9;&#9;&#9;&#9;c-0.6,0.6-1.3,1-1.9,1.3l-0.2,0.1l0,0.3c-1,6.2-4.3,11.6-8.1,15.8c-0.1,0.2-0.3,0.3-0.4,0.5c-0.1,0.1-0.3,0.3-0.4,0.4&#10;&#9;&#9;&#9;&#9;c-4.5,4.6-9.5,7.3-12.6,7.3l0,0.5v-0.5c-2.7,0-7.8-2.8-12.4-7.4c-0.2-0.2-0.3-0.3-0.5-0.5c-0.2-0.2-0.3-0.3-0.5-0.5&#10;&#9;&#9;&#9;&#9;c-3.8-4.1-7.1-9.4-8.1-15.4L103.1,267.4z" style="fill: rgb(51, 51, 51);"/>
			<g>
				<path class="st1" d="M124.4,274.2c0.4,0,1.6-0.5,2.6-1c0.9-0.4,1.7-0.8,1.8-0.8c-2.1-1-6.9-0.9-9,0&#10;&#9;&#9;&#9;&#9;&#9;C121.4,273.1,122.6,274.3,124.4,274.2z" style="fill: rgb(51, 51, 51);"/>
				<path class="st1" d="M130.3,255.9c1.1,0.1,1.8-0.2,2.8-0.3c1.9-0.2,3.8-0.6,5.7-0.7c1.4-0.1,3.9,0,5.2-0.1&#10;&#9;&#9;&#9;&#9;&#9;c0.1,0-2.7-1.1-3.6-1.4c-2.4-0.1-9,0.7-11,0.8c-0.6,0-1.8,0.4-1.8,0.8C127.5,255.8,129.5,255.9,130.3,255.9z" style="fill: rgb(51, 51, 51);"/>
				<path class="st1" d="M115.5,255.6c1,0.1,1.8,0.4,2.8,0.3c0.7-0.1,2.7-0.2,2.6-0.9c-0.1-0.4-1.3-0.8-1.8-0.8&#10;&#9;&#9;&#9;&#9;&#9;c-1.9-0.1-8.6-1-11-0.8c-0.9,0.3-3.7,1.4-3.6,1.4c1.4,0,3.8,0,5.2,0.1C111.7,255,113.7,255.4,115.5,255.6z" style="fill: rgb(51, 51, 51);"/>
				<path class="st1" d="M140.7,258.2C140.7,258.2,140.7,258.2,140.7,258.2c-0.1,0-0.2,0-0.2-0.1c0,0,0,0,0,0&#10;&#9;&#9;&#9;&#9;&#9;c-1-0.5-2.7-1.1-3.2-1.2c-2.4-0.3-3.7,0-5.7,0.8c-0.8,0.5-1.6,1.3-1.9,1.9c0.1-0.1,0.2-0.2,0.3-0.3c0.5-0.4,1-0.8,1.5-1&#10;&#9;&#9;&#9;&#9;&#9;c0.4-0.1,0.8-0.2,1.2-0.3c-0.1,0.2-0.1,0.4-0.1,0.6c0,0.6,0.2,1.1,0.5,1.5c0,0,0,0.1,0.1,0.1c0.3,0.1,0.6,0.1,0.9,0.2&#10;&#9;&#9;&#9;&#9;&#9;c-0.3,0-0.5,0-0.8-0.1c0.9,0.3,1.8,0.3,2.7,0.2c0.7-0.1,1.4-0.2,2.1-0.5c0.9-0.3,1.8-0.8,2.3-1.5c0.3,0,0.5,0,0.7-0.1&#10;&#9;&#9;&#9;&#9;&#9;C141.1,258.4,140.9,258.3,140.7,258.2C140.7,258.2,140.7,258.2,140.7,258.2z M136.7,260.1c-0.2,0-0.4,0.1-0.6,0.1&#10;&#9;&#9;&#9;&#9;&#9;c-0.1,0-0.1-0.1-0.1-0.2c0-0.2,0-0.3,0.2-0.4c0,0,0.4-0.1,0.6-0.6c0.1-0.1,0.2-0.2,0.4-0.2c0.2,0.1,0.3,0.2,0.2,0.4&#10;&#9;&#9;&#9;&#9;&#9;C137.2,259.8,136.9,260,136.7,260.1z M134.8,258.5c0,0.4-0.3,0.7-0.7,0.7c0,0-0.1,0-0.1,0c-0.3-0.1-0.5-0.3-0.5-0.6&#10;&#9;&#9;&#9;&#9;&#9;c0-0.4,0.3-0.7,0.7-0.7c0,0,0.1,0,0.1,0C134.6,258,134.9,258.2,134.8,258.5z M139.4,259.2c-0.6,0.3-1.2,0.5-1.9,0.7&#10;&#9;&#9;&#9;&#9;&#9;c0.2-0.4,0.3-0.8,0.3-1.2c0-0.3-0.1-0.6-0.2-0.8c0.8,0.2,1.8,0.6,2.6,0.7c0,0,0,0,0.1,0C140.1,258.8,139.7,259,139.4,259.2z" style="fill: rgb(51, 51, 51);"/>
				<path class="st1" d="M117.2,258.4c0.5,0.2,1,0.6,1.5,1c0.1,0.1,0.2,0.2,0.3,0.3c-0.2-0.5-1-1.3-1.7-1.8c-2-0.8-3.4-1.1-5.8-0.9&#10;&#9;&#9;&#9;&#9;&#9;c-0.5,0.1-2.2,0.7-3.2,1.2c0,0,0,0,0,0c-0.1,0-0.2,0.1-0.2,0.1c0,0,0,0,0,0c0,0,0,0,0,0c-0.2,0.1-0.4,0.2-0.5,0.2&#10;&#9;&#9;&#9;&#9;&#9;c0.2,0.1,0.4,0.1,0.7,0.1c0.5,0.7,1.4,1.2,2.3,1.5c0.7,0.2,1.4,0.4,2.1,0.5c0.7,0.1,1.5,0.1,2.3-0.1c0.3,0,0.6-0.1,0.8-0.1&#10;&#9;&#9;&#9;&#9;&#9;c0,0,0.1-0.1,0.1-0.1c0.3-0.4,0.5-0.9,0.5-1.5c0-0.2,0-0.4-0.1-0.6C116.6,258.2,116.9,258.3,117.2,258.4z M112.9,258.5&#10;&#9;&#9;&#9;&#9;&#9;c0,0.3-0.2,0.5-0.4,0.6c-0.1,0-0.2,0.1-0.3,0.1c-0.4,0-0.7-0.3-0.7-0.7c0-0.4,0.3-0.7,0.7-0.7c0.2,0,0.3,0.1,0.4,0.2&#10;&#9;&#9;&#9;&#9;&#9;C112.8,258.2,112.9,258.3,112.9,258.5z M108.3,258.6C108.3,258.6,108.3,258.6,108.3,258.6c0.9-0.1,2.1-0.6,3-0.7&#10;&#9;&#9;&#9;&#9;&#9;c-0.1,0.3-0.2,0.6-0.2,0.9c0,0.5,0.2,0.9,0.4,1.3c-0.8-0.2-1.5-0.4-2.2-0.8C108.9,259,108.6,258.8,108.3,258.6z M115,260.2&#10;&#9;&#9;&#9;&#9;&#9;c-0.1,0.1-0.2,0.1-0.2,0.1c-0.1,0-0.2,0-0.3-0.1c0,0-0.1-0.1-0.1-0.1c0-0.2,0.1-0.3,0.2-0.4c0,0,0.4-0.1,0.6-0.6&#10;&#9;&#9;&#9;&#9;&#9;c0.1-0.1,0.2-0.2,0.4-0.2c0.2,0.1,0.3,0.2,0.2,0.4C115.6,259.9,115.2,260.1,115,260.2z" style="fill: rgb(51, 51, 51);"/>
				<g>
					<path class="st1" d="M131.5,279.2c-0.6,0.2-1.3,0.6-1.6,0.7c-1.4,0.3-3.3,0-4.7-0.1c-1.5-0.1-2.8,0.1-4.2,0.2&#10;&#9;&#9;&#9;&#9;&#9;&#9;c-0.9,0.1-1.6,0.1-2.4-0.3c-0.4-0.2-1.6-0.9-2-0.5c-0.2,0.2-0.2,0.5,0,0.7c1.4,1.4,2.2,0.7,4,0.6c2.4-0.1,5.4-0.1,7.7,0&#10;&#9;&#9;&#9;&#9;&#9;&#9;c1.8,0.1,2.6,0.8,4-0.6c0.2-0.2,0.2-0.5,0-0.7C132.1,279.1,131.8,279.2,131.5,279.2z" style="fill: rgb(51, 51, 51);"/>
					<path class="st1" d="M126.4,282.6h-4.2c-1,0.1-2-0.4-2-0.4c0.1,1.2,2,1.8,2,1.8h4.2c0,0,1.8-0.6,2-1.8&#10;&#9;&#9;&#9;&#9;&#9;&#9;C128.4,282.2,127.4,282.7,126.4,282.6z" style="fill: rgb(51, 51, 51);"/>
				</g>
			</g>
		</g>
		
		
		
	</g>
<g id="shadow" transform="matrix(1, 0, 0, 1, -191.93548583984375, -60.611207008361816)">
		
			<radialGradient id="SVGID_1_" cx="227.5514" cy="-1122.1366" r="67.7019" gradientTransform="matrix(4.0644 0 0 0.1181 -649.86 300.9754)" gradientUnits="userSpaceOnUse">
			<stop offset="0" style="stop-color:#C7BCAA"/>
			<stop offset="0.2028" style="stop-color:#D7CFC2"/>
			<stop offset="0.5368" style="stop-color:#EDE9E3"/>
			<stop offset="0.8145" style="stop-color:#FAF9F8"/>
			<stop offset="1" style="stop-color:#FFFFFF"/>
		</radialGradient>
		<path class="st2" d="M550,168.2c-4.8-4.3-126.1-7.7-275-7.7c-148.9,0-270.2,3.4-275,7.7H550z" style="opacity: 0.5; fill: url('#SVGID_1_');"/>
		
			<radialGradient id="SVGID_2_" cx="320.2922" cy="1671.4078" r="67.702" gradientTransform="matrix(-4.0644 0 0 0.1181 1576.7955 136.1038)" gradientUnits="userSpaceOnUse">
			<stop offset="0" style="stop-color:#C7BCAA"/>
			<stop offset="0.2028" style="stop-color:#D7CFC2"/>
			<stop offset="0.5368" style="stop-color:#EDE9E3"/>
			<stop offset="0.8145" style="stop-color:#FAF9F8"/>
			<stop offset="1" style="stop-color:#FFFFFF"/>
		</radialGradient>
		<path class="st3" d="M0,333.2c4.8-4.3,126.1-7.7,275-7.7c148.9,0,270.2,3.4,275,7.7H0z" style="opacity: 0.5; fill: url('#SVGID_2_');"/>
	</g>
</svg>