<?xml version="1.0" encoding="utf-8"?>
<svg id="master-artboard" viewBox="0 0 259.9660339355469 196.8760528564453" version="1.1" xmlns="http://www.w3.org/2000/svg" x="0px" y="0px" style="enable-background:new 0 0 800 600;" width="259.9660339355469px" height="196.8760528564453px"><rect id="ee-background" x="0" y="0" width="259.9660339355469" height="196.8760528564453" style="fill: white; fill-opacity: 0; pointer-events: none;"/>




<g transform="matrix(1, 0, 0, 1, -268.3870849609375, -141.25636291503906)">
		<radialGradient id="SVGID_2_" cx="390.2367" cy="338.5403" r="169.4359" gradientUnits="userSpaceOnUse">
			<stop offset="0" style="stop-color:#FFFFFF"/>
			<stop offset="1" style="stop-color:#D4D4D4"/>
		</radialGradient>
		
		
		
		<g>
			<path class="st15" d="M408.7,185.3c0,0,0,3.3-1.2,5.8c-1.2,2.5-1.2,6.6,0.2,9.1c1.5,2.5,0.6,5.8,0.6,5.8s-12.7,1.5-12.7,0.8&#10;&#9;&#9;&#9;&#9;c0-0.6-0.4-12.5-0.4-14.1c0-1.7,0.4-5.6,0.8-6.2C396.4,186,408.7,185.3,408.7,185.3z" style="fill: rgb(35, 31, 32);"/>
			<path class="st15" d="M382.2,181.8c0,0,0,3.9,1.2,6.8c1.2,2.9,2,8,0.5,10.9c-1.5,2.9-1.3,6.5-1.3,6.5s12.7,1.7,12.7,1&#10;&#9;&#9;&#9;&#9;c0-0.7,0.4-14.5,0.4-16.4c0-1.9-0.4-6.5-0.8-7.2C394.5,182.5,382.2,181.8,382.2,181.8z" style="fill: rgb(35, 31, 32);"/>
			<path class="st15" d="M463.9,302.6c-3.4-2.4-13.3-6.9-16.6-7.7c0-2.2,0.2-3.4-3.6-4c-3-0.8-5.1-2.2-6.1-2.2c-1,0-5.4-0.4-7.9,1.2&#10;&#9;&#9;&#9;&#9;c-2.6,1.6-3.4,1.4-3.4,1.4s-3.6-3.4-3.8-6.1c-0.2-2.8-4-12.3-4.6-14.3c-0.6-2-0.8-11.7,0.4-15.6c5.7,2.8,16.4,5.9,19.8,6.5&#10;&#9;&#9;&#9;&#9;c3.4,0.6,5.1,4.2,8.3,0c3.2-4.2,1.6-8.9-2.6-18c-4.2-9.1-9.1-19.6-11.9-25.6c-2.8-5.9-5.9-8.5-10.7-8.3c-4.8,0.2-8.1-1-10.5-2.4&#10;&#9;&#9;&#9;&#9;c-2.4-1.4-7.7-3.4-7.5-10.3c0.2-0.8,0.2-3.4,0.2-3.4s3-3,3.2-6.1c3.2-2.2,3.8-5.4,3.8-6.5c0-1.2,0-2,0-2s0.8-4.2,0.5-6.8&#10;&#9;&#9;&#9;&#9;c-0.4-3.6-0.6-6.9-2.4-9.7c-1.8-2.8-4.8-6.1-8.3-5.9c-3.6,0.2-3.4,0-4.6,0c0,0-4.4-0.2-6.3,0.6c-2,0.8-4,2.6-4.8,4.2&#10;&#9;&#9;&#9;&#9;c-0.8,1.6-2.3,5.4-2.7,6.6c-0.4,1.2-0.4,5-0.8,5.7c-0.4,0.8-1.4,3.6-1.2,4.4c0.2,0.8,2,3,2.2,3.8c0.2,0.8,1.4,4.2,3,3.6&#10;&#9;&#9;&#9;&#9;c0.4,2,2,6.7,2,8.7c0,2-1,7.9-2.6,9.7c-1.6,1.8-3.6,3.2-3.6,3.2l-4.2,1.4c0,0-3.6,1.4-5.9,1.4c-2.4,0-7.9,0.4-10.9,7.9&#10;&#9;&#9;&#9;&#9;c-2,4-4,11.7-5.1,15.1c-1.2,3.4-7.7,20.4-7.7,23c0,2.6,0.4,6.7,3.6,8.9c1.2,0.8,4.2-1,5.7-1.8c1.6-0.8,12.5-3.4,16-5.9&#10;&#9;&#9;&#9;&#9;c0,4.4,0.8,13.3-0.2,14.9c-1,1.6-1.8,6.9-2,9.3c-0.2,2.4-1,7.1-2.6,8.9c-1.6,1.8-1.8,2.2-1.8,2.2s-6.7-0.4-8.1,1&#10;&#9;&#9;&#9;&#9;c-1.4,1.4-2.6,1-4.6,1.6c-2,0.6-21,1.6-20.6,14.9c1.2,8.9,11.9,10.7,11.9,10.7s3.4-0.4,5.1,0c1.8,0.4,22-1.8,29.3-4.2&#10;&#9;&#9;&#9;&#9;c6.7,0.6,15.3-2.4,33.9-0.6c5.9,0.8,28.9,6.3,45.6,4c5.3-0.2,7.3-1.8,8.7-6.3C468.5,308.7,467.3,305,463.9,302.6z M420.8,236&#10;&#9;&#9;&#9;&#9;c0,0,1.3-1,1.9-1.9c0.5-1,0.6-2.1,1.1-1.8c0.4,0.4,1.6,4.3,2.1,5.5c0.5,1.1,5.3,9.9,5.7,10.2c-3.3-0.4-11.4-2.3-11.4-2.3&#10;&#9;&#9;&#9;&#9;L420.8,236z M365.5,247.2c-1.5,0-2.4-0.1-2.4-0.1s2.5-2.3,3.4-5.4c1-3.1,1.6-6.2,2.7-5l0.7,9.9C370,246.6,367,247.2,365.5,247.2z&#10;&#9;&#9;&#9;&#9;" style="fill: rgb(35, 31, 32);"/>
			<path class="st16" d="M384.1,181.1c0,0-1-2.1-1.4-2.6c-0.4-0.4-0.6-0.7-0.9-0.7c-0.3,0-1,0.6-1,0.6s1.1,1.4,1.8,3.2&#10;&#9;&#9;&#9;&#9;c0.7,1.8,1.4,3,2,3c0.6,0,0.6,0,0.6,0s1.7,5.2,1.9,6.3c0.3,1.1,1.9,7.8,7.5,7.6c2.4-0.1,5.3,0.7,8.3-5.2c1.1-1.4,2.3-4.3,3.4-6.7&#10;&#9;&#9;&#9;&#9;c1-0.6,2.2-1.8,2.8-2.7c0.6-1,1.7-4.3,0.9-4.6c-0.8-0.3-0.6-0.3-1.1,0.3c-0.4,0.5-0.7,1.3-0.7,1.3l-0.4,0.3c0,0,0.5-4.3,0.3-6.1&#10;&#9;&#9;&#9;&#9;c-0.2-1.8-1.9-4.9-4.5-6.1c-1.4-0.8-1.6-0.7-2.6-0.5c-1,0.2-6.6,1-9.1,0.3c-2.5-0.7-3.8-0.2-4.1,0.2c-0.3,0.4-0.8,0.7-1.4,1.8&#10;&#9;&#9;&#9;&#9;c-0.6,1.1-0.9,1.9-1.1,2.1c-0.3,0.2-0.7,0.9-0.9,1.5c-0.2,0.6,0,2.3,0,3.5C384.5,179,384.9,181.3,384.1,181.1z" style="fill: rgb(230, 217, 186);"/>
			<path class="st16" d="M387.8,194.3c0,0,0.2,3.3-0.4,4.7c-0.5,1.4-1.9,5.4-3.2,6.7c-1.2,1.3-3.2,2-3.2,2s-1.7,7.7,3.6,14.6&#10;&#9;&#9;&#9;&#9;c1.8,2.3,3.9,3.7,5.7,3.4c0.9-3,3.5-13.1,3.7-13.9c0.2-0.8-0.3-1.5,0.6-1.6c0.9-0.1,0.9-0.2,1.2,0c0.4,0.2,1.4,1,1.4,1&#10;&#9;&#9;&#9;&#9;s0.8-0.9,1.3-0.5c0.5,0.4,1.2,1.1,1.2,1.1s0.4,0.8,0.4,2.3c0,1.5,1.1,10.3,1.2,10.8c0.2,0.4,0,1.1,0.3,1.1c0.3,0,5.5-1.7,6.4-5.7&#10;&#9;&#9;&#9;&#9;c1-4.1,1.2-11.8,1.1-12.3c-0.1-0.4-0.1-0.4-0.1-0.4s-3.9-1.9-5-4.2c-1.1-2.4-1.8-4-1.8-5.3c0-1.3,0.2-3.1,0.2-3.1&#10;&#9;&#9;&#9;&#9;s-0.4,3.1-4.6,4.1c-4.1,1-6.5-0.2-7.5-1C389.6,197.3,388.5,195.6,387.8,194.3z" style="fill: rgb(230, 217, 186);"/>
			<path class="st17" d="M410,208c0,0-0.1,7.8-0.7,11.5c-0.6,3.8-4,6.1-7.4,7.3c0.5,3.3,1.3,10.7,3,12.3c1.7,1.6,7.7,4.1,8.8,4.1&#10;&#9;&#9;&#9;&#9;c1.1,0,5.8,1.9,5.8,1.9s0.5-8.3,0.5-8.6c-0.7-0.6-2.3-5.3-2.8-8.4c-0.5-3.1-2.3-12.3-1.8-17.9C414.3,209.8,410,208,410,208z" style="fill: rgb(175, 209, 54);"/>
			<path class="st16" d="M420.2,235.1c0,0,1.3-0.8,1.9-1.9c0.6-1.1,0.3-1.9,1.1-2c0.8-0.1,1.2-0.4,1.4,0.2c0.2,0.5,1.3,5.1,3.4,9.3&#10;&#9;&#9;&#9;&#9;c2.1,4.1,2.6,5.6,4.2,6.3c1.6,0.7,1.5,0.4,2.6,0.7c1.1,0.3,3.1,0.9,3.1,0.9s-2.4-0.2-3.4-0.2c-1.1,0-1.9,0.4-2.7,0.4&#10;&#9;&#9;&#9;&#9;c-0.8-0.1-9.7-1.8-14.3-3.5c-3.2-0.9-7.2-2-7.8-2.3c-0.6-0.3-5-2-5.9-3.8c-0.9-1.8-3.1-10.3-3.4-15.6c-0.3-5.3-0.9-10.4-1.2-11&#10;&#9;&#9;&#9;&#9;c-0.4-0.6-0.6-0.8-1-0.8c-0.4,0-0.3-0.3-0.4,0.3c-0.2,0.5-0.2,10.4-0.2,11.6c0,1.1,0.1,10.1,0.1,12.5c0,2.4-0.6,5.4,1,6.8&#10;&#9;&#9;&#9;&#9;c1.6,1.4,7.3,5.4,9.8,6.3c2.5,1,7.8,4.3,14,6.9c6.3,2.6,12.3,4.2,14.9,4.6c2.6,0.4,5.6,1.9,5.9,1.9c0.4,0,3.4-0.9,3.4-4.9&#10;&#9;&#9;&#9;&#9;c0-4-0.5-7.5-2.5-11.8c-1.9-4.3-12.3-26-13.8-28.7c-1.6-2.7-2.9-4.8-5.8-5.6c-2.9-0.9-7.2-0.7-8.2-0.9c-0.2,1.5-0.3,7.5,1,13.3&#10;&#9;&#9;&#9;&#9;C418.6,229.7,418.9,232.9,420.2,235.1z" style="fill: rgb(230, 217, 186);"/>
			<path class="st17" d="M376.1,209.7c0,0,0.3,8.7,0.2,11.6c-0.1,2.8-2.5,11.7-3.6,13.4c-1.1,1.7-2.4,1.9-2.4,1.9s0.3,9.5,0.5,9.9&#10;&#9;&#9;&#9;&#9;c1.1-0.4,15.9-5.1,17.4-6.4c1.5-1.3,2.2-1.6,2.2-3.5c0-1.9-0.1-8.2,0.2-9.3c0-0.5,0-0.5,0-0.5s-3.5,0.2-5.6-2.5&#10;&#9;&#9;&#9;&#9;c-2.1-2.6-3.7-5.7-4.4-9.7c-0.2-1.5-0.7-3.8-0.4-6.3C378.4,208.7,376.1,209.7,376.1,209.7z" style="fill: rgb(175, 209, 54);"/>
			<path class="st16" d="M375.2,209.9c0,0,0.4,8.3,0,11.1c-0.4,2.8-0.7,6.7-1.7,8.8c-1,2.1-1.6,4-2.2,4.6c-0.6,0.6-1.3,0.8-1.3,0.8&#10;&#9;&#9;&#9;&#9;s0-0.6-1-0.3c-1,0.4-1.4,1.2-1.4,1.2s-1.5,5.2-2.6,7.3c-1.1,2.1-1.9,2.8-1.9,2.8s-2.8,0.3-4,0.7c-1.1,0.4-1.7,1.1-2.6,1.6&#10;&#9;&#9;&#9;&#9;c-0.9,0.4,3.2-0.5,5.3-0.5c2.1,0,6.5-0.1,11.3-1.8c4.8-1.7,14.4-3.7,17-7.8c0.8-1.1,0.6-1.9,0.6-3.4c0-1.6-0.4-7.6,0.4-9.6&#10;&#9;&#9;&#9;&#9;c0.8-2,3.3-10.9,3.4-12.3c0.2-1.4-0.2-2.2,0.8-2c1,0.2,1.4-0.2,1.4,0.8c0,1,0,1.3,0,1.8c0,0.4,0,4.2,0,7.5c0,3.3-0.4,5.6-0.1,7.8&#10;&#9;&#9;&#9;&#9;c0.2,1.7,0.6,11.7-0.6,14.1c-0.7,1-12.7,7.8-17.5,10c-4.8,2.1-10,4.9-12.3,5.7c-2.2,0.9-9.6,2.6-11.4,3.5&#10;&#9;&#9;&#9;&#9;c-1.8,0.9-3.8,2.9-5.5,0.4c-1.7-2.5-3.1-6.3-1.2-10.8c1.9-4.6,8.6-24.6,10.3-29.4c1.7-4.8,5-10.6,8.9-11.6&#10;&#9;&#9;&#9;&#9;C371.2,210.1,372.5,210.5,375.2,209.9z" style="fill: rgb(230, 217, 186);"/>
			<path class="st17" d="M373.5,257.1c0,0,0.7,11.9,0.5,14.4c-0.2,2.5-1.6,4.3-1.6,4.3s-1.1,12.1-2.3,13.5c-1.1,1.4-2.3,2.5-2.3,2.5&#10;&#9;&#9;&#9;&#9;s6.7,1,10.6,6.7c3.9,0.3,4.5,0.5,4.5,0.5s3.3-3.9,6.3-3.1c3.1,0.9,5.5,2.2,8.7,1.2c3.3-1,7-1,7.9-2.7c0.9-1.7,3.8-5.3,6-5.3&#10;&#9;&#9;&#9;&#9;c2.2,0,4.5,1,6.5,2.1c2.1,1,3.9,2.4,6.7,0.9c-2.6-3.2-4.1-8.2-5-10.8c-0.9-2.6-3.8-8.6-3.8-10.4c0-1.9,0-5.7,0-7.4&#10;&#9;&#9;&#9;&#9;c0-1.7,0.5-5.8,1-8.4c-3.6-1.7-18.8-8.9-19.9-10.8C392,247.5,380.3,253.8,373.5,257.1z" style="fill: rgb(175, 209, 54);"/>
			<path class="st15" d="M387.9,181.4c0,0,3.3,0.6,5-0.7c0.7,0.1,0.7,0.1,0.7,0.1l-0.3,0.8l-0.8,0.1&#10;&#9;&#9;&#9;&#9;C392.5,181.7,389.4,183.5,387.9,181.4z" style="fill: rgb(35, 31, 32);"/>
			<path class="st15" d="M403.4,181.4c0,0-3.3,0.6-5-0.7c-0.7,0.1-0.7,0.1-0.7,0.1l0.3,0.8l0.8,0.1&#10;&#9;&#9;&#9;&#9;C398.8,181.7,401.9,183.5,403.4,181.4z" style="fill: rgb(35, 31, 32);"/>
			<path class="st15" d="M393.8,177.8c0,0-3.1-1-4.3-0.8c-1.2,0.2-2.7,0.6-3,1.8c2-0.7,2.1-1.6,6.7-0.6&#10;&#9;&#9;&#9;&#9;C393.4,178.1,393.8,177.8,393.8,177.8z" style="fill: rgb(35, 31, 32);"/>
			<path class="st15" d="M398.1,177.8c0,0,3.1-1,4.3-0.8c1.2,0.2,2.7,0.6,3,1.8c-2-0.7-2.1-1.6-6.7-0.6&#10;&#9;&#9;&#9;&#9;C398.5,178.1,398.1,177.8,398.1,177.8z" style="fill: rgb(35, 31, 32);"/>
			<path class="st15" d="M391.6,191.7c0,0,2-0.2,2.4-0.4c0.4-0.2,1.1-0.4,2.6-0.2c1.5,0.2,2.6,0.6,3.4,0.6c-1.2,0.6-1.2,1.5-3.9,1.6&#10;&#9;&#9;&#9;&#9;C391.9,193.4,392,191.6,391.6,191.7z" style="fill: rgb(35, 31, 32);"/>
			<path class="st15" d="M394.1,186.6c0,0,2.3,0.3,3.1,0C395.6,188.1,394.1,186.6,394.1,186.6z" style="fill: rgb(35, 31, 32);"/>
			<linearGradient id="SVGID_14_" gradientUnits="userSpaceOnUse" x1="333.1307" y1="307.5494" x2="466.6357" y2="307.5494">
				<stop offset="0" style="stop-color:#63CCF5"/>
				<stop offset="1" style="stop-color:#1997BC"/>
			</linearGradient>
			<path class="st18" d="M446.5,295.9c3.3,0.7,13.1,4.9,16.4,7c3.3,2.2,4.5,5.6,3.1,9.7c-1.4,4.1-3.3,5.6-8.6,5.8&#10;&#9;&#9;&#9;&#9;c-16.4,2.2-39.2-2.9-45-3.6c-18.4-1.6-26.8,1.1-33.5,0.5c-7.2,2.2-27.2,4.1-29,3.8c-1.8-0.4-5.1,0-5.1,0s-10.6-1.6-11.7-9.7&#10;&#9;&#9;&#9;&#9;c-0.4-12.1,18.4-13,20.4-13.5c0,0,2.1,1.3,6.7,1c4.1-0.3,6.9-0.8,9.4,1.6c2.2,0.6,17,1.7,17,1.7s2.5,2.8,2.5,11.6&#10;&#9;&#9;&#9;&#9;c5.5,0.5,14.5-0.9,31.7-10.4c2.2-0.6,6.3-1.4,10.1-2.4C434.7,298.1,439.3,296.3,446.5,295.9z" style="fill: url('#SVGID_14_');"/>
			<path class="st16" d="M375.3,297.1c0,0-4.1-3.8-7.9-3.9c-3.8-0.2-7.9,0-8.7,0.9c-0.9,0.9-1.2,1.7-1.2,1.7s6-0.3,8,0&#10;&#9;&#9;&#9;&#9;c2.1,0.3,3.9,1.4,3.9,1.4S373.6,296.6,375.3,297.1z" style="fill: rgb(230, 217, 186);"/>
			<path class="st16" d="M385.1,298.7c0,0,2.1-0.2,2.9,0.3c0.9,0.5,2.6,3.3,2.4,11.8c8.9-0.2,19.7-5.5,23.8-7.9&#10;&#9;&#9;&#9;&#9;c4.1-2.4,8.2-4.3,10.6-4.3c2.4,0,7.5-1.5,10.1-2.4c2.6-0.9,8.2-1.9,11-1.4c-0.2-1.5-0.9-3.1-2.7-3.1c-1.9,0-4.8-1.9-6.2-1.9&#10;&#9;&#9;&#9;&#9;c-1.4,0-8.2,1.5-12.2,3.3c-3.9,1.7-9.8-2.2-9.8-2.2s-4.6-3.1-8.4,4.5c-0.5,1-8,2.7-10.3,3.1c-2.2,0.3-5.6-1.2-6.5-1.2&#10;&#9;&#9;&#9;&#9;C389,297.3,387.2,296.4,385.1,298.7z" style="fill: rgb(230, 217, 186);"/>
			<path class="st15" d="M367.3,297.6c0,0-7.2,1.5-12.3,4.6C355.8,300.2,363.2,295.9,367.3,297.6z" style="fill: rgb(35, 31, 32);"/>
		</g>
	</g></svg>